<?xml version="1.0" encoding="utf-8"?>
<!-- Generator: Adobe Illustrator 25.3.1, SVG Export Plug-In . SVG Version: 6.00 Build 0)  -->
<!DOCTYPE svg PUBLIC "-//W3C//DTD SVG 1.1//EN" "http://www.w3.org/Graphics/SVG/1.1/DTD/svg11.dtd" [
	<!ENTITY ns_extend "http://ns.adobe.com/Extensibility/1.0/">
	<!ENTITY ns_ai "http://ns.adobe.com/AdobeIllustrator/10.0/">
	<!ENTITY ns_graphs "http://ns.adobe.com/Graphs/1.0/">
	<!ENTITY ns_vars "http://ns.adobe.com/Variables/1.0/">
	<!ENTITY ns_imrep "http://ns.adobe.com/ImageReplacement/1.0/">
	<!ENTITY ns_sfw "http://ns.adobe.com/SaveForWeb/1.0/">
	<!ENTITY ns_custom "http://ns.adobe.com/GenericCustomNamespace/1.0/">
	<!ENTITY ns_adobe_xpath "http://ns.adobe.com/XPath/1.0/">
]>
<svg version="1.1" id="Layer_1" xmlns:x="&ns_extend;" xmlns:i="&ns_ai;" xmlns:graph="&ns_graphs;"
	 xmlns="http://www.w3.org/2000/svg" xmlns:xlink="http://www.w3.org/1999/xlink" x="0px" y="0px" viewBox="0 0 136.5 286.4"
	 style="enable-background:new 0 0 136.5 286.4;" xml:space="preserve">
<style type="text/css">
	.st0{fill:#95D5D4;}
</style>
<metadata>
	<sfw  xmlns="&ns_sfw;">
		<slices></slices>
		<sliceSourceBounds  bottomLeftOrigin="true" height="286.4" width="136.5" x="0" y="0"></sliceSourceBounds>
	</sfw>
</metadata>
<path class="st0" d="M129.2,205c-0.2,0.7-12.9-10.7-21.7-39.1c-5.3-16.9-9-34.3-11-51.9c-1.8-20.4-4.9-44.1,3.1-69.6
	c1.5-6,9.9-14.3,17.5-8c6.5,7.6,3,15.9,1.8,22.3c-3.9,13.4-9.5,26.1-15.1,39.2c-11.2,26.1-23.7,53.4-31.5,83.4
	c-3.8,14.8-6.2,30.9-5,46.2c2.4,23,8.8-2.7,8.7-17c0.2-32.4-13.4-64-18.7-98.2c-2.5-17.5-3.4-34.1-4.2-51.5
	c0.1-17.1-1.6-34.9,7.3-52.3c2.4-4.2,7.1-7.8,12-8.3c4.6-0.5,9,0.1,13.6,4.1c7.9,9.6,4.7,19.9,3.8,28c-3.3,16.9-9,32.2-14.6,47.2
	c-22.8,59.6-49.9,112.9-63.4,162.7c-3,11.8-5.4,26-0.9,32.5c4.9,7.1,13-1,16.6-10.2c7.8-18.8,10.2-38.5,12.3-54.3
	c2.1-19.1,3.3-38.4,3.4-57.6c0.1-18.5-0.2-50-4.5-76.1c-0.9-6.1-2.2-12.1-3.9-18.1c-1.4-5.3-3.8-10.5-6.1-9.6
	c-5.8,3.1-8.7,9.5-9.3,8.6c0.1,0,0.3-6.1,8.4-12c6.7-1.7,9.4,6.4,11.4,11.2c2.2,6,4,12.2,5.3,18.5c5.9,26.7,7.1,58.7,7,77.5
	c-0.1,19.6-1.2,39.3-3.4,58.8c-2.2,16.4-4.4,36.1-13.1,57.3c-2.5,5.1-5.2,10.7-10.6,14.9c-5.3,4.7-14.9,3.9-19.6-2.8
	c-8.2-14.3-3.2-28.2-0.7-41c14.1-51.7,41.3-104.6,64-163.7C73.3,61.2,78.9,46,82,30.4c1.5-7.3,2.1-16.7-1.2-19.7
	c-1.1-1.4-4.8-2.4-7.6-2c-2.8,0.4-5.3,2.2-6.6,4.7c-6.7,12.3-6.3,30.7-6,46.9c0.7,16.6,1.7,34.1,4,50.3c4.9,33,18.6,64.7,18.4,99.8
	c-0.5,8.6-0.7,17.2-4.4,26c-1,2.4-2.5,4.5-4.4,6.1c-1.8,2.3-7.4,2.1-9.1-0.7c-3.8-4.8-3.8-9.3-4.4-13.6c-1.2-17.2,1.5-33.6,5.5-49.1
	c8.3-30.9,21.1-58.3,32.5-84.3c5.7-13,11.4-25.6,15.2-38.1c1.7-5.9,3-13.5,0.2-16c-3.4-2.9-7.9,0.4-9.8,5.9
	c-7.4,22.5-5.1,46.9-3.6,66.7c1.7,17.4,4.9,34.6,9.7,51.4C118.1,193,129.7,204.7,129.2,205z M126.9,116c-5.3,0-9.6,4.3-9.6,9.6
	s4.3,9.6,9.6,9.6c5.3,0,9.6-4.3,9.6-9.6c0,0,0,0,0,0C136.5,120.3,132.2,116,126.9,116L126.9,116z"/>
</svg>
